<svg id="visual" viewBox="0 0 900 600" width="900" height="600" xmlns="http://www.w3.org/2000/svg" xmlns:xlink="http://www.w3.org/1999/xlink" version="1.1"><path d="M0 565L21.5 565.3C43 565.7 86 566.3 128.8 555.2C171.7 544 214.3 521 257.2 512.8C300 504.7 343 511.3 385.8 516.2C428.7 521 471.3 524 514.2 527.7C557 531.3 600 535.7 642.8 530.3C685.7 525 728.3 510 771.2 508.3C814 506.7 857 518.3 878.5 524.2L900 530L900 601L878.5 601C857 601 814 601 771.2 601C728.3 601 685.7 601 642.8 601C600 601 557 601 514.2 601C471.3 601 428.7 601 385.8 601C343 601 300 601 257.2 601C214.3 601 171.7 601 128.8 601C86 601 43 601 21.5 601L0 601Z" fill="#565584"></path><path d="M0 528L21.5 536C43 544 86 560 128.8 566.7C171.7 573.3 214.3 570.7 257.2 570.2C300 569.7 343 571.3 385.8 569.7C428.7 568 471.3 563 514.2 553.7C557 544.3 600 530.7 642.8 528C685.7 525.3 728.3 533.7 771.2 535C814 536.3 857 530.7 878.5 527.8L900 525L900 601L878.5 601C857 601 814 601 771.2 601C728.3 601 685.7 601 642.8 601C600 601 557 601 514.2 601C471.3 601 428.7 601 385.8 601C343 601 300 601 257.2 601C214.3 601 171.7 601 128.8 601C86 601 43 601 21.5 601L0 601Z" fill="#4376a5"></path><path d="M0 583L21.5 576C43 569 86 555 128.8 552C171.7 549 214.3 557 257.2 557.8C300 558.7 343 552.3 385.8 548.3C428.7 544.3 471.3 542.7 514.2 542.5C557 542.3 600 543.7 642.8 546.5C685.7 549.3 728.3 553.7 771.2 552.7C814 551.7 857 545.3 878.5 542.2L900 539L900 601L878.5 601C857 601 814 601 771.2 601C728.3 601 685.7 601 642.8 601C600 601 557 601 514.2 601C471.3 601 428.7 601 385.8 601C343 601 300 601 257.2 601C214.3 601 171.7 601 128.8 601C86 601 43 601 21.5 601L0 601Z" fill="#2a97b9"></path><path d="M0 585L21.5 585.5C43 586 86 587 128.8 587.7C171.7 588.3 214.3 588.7 257.2 587.3C300 586 343 583 385.8 581.5C428.7 580 471.3 580 514.2 581.3C557 582.7 600 585.3 642.8 582.3C685.7 579.3 728.3 570.7 771.2 568C814 565.3 857 568.7 878.5 570.3L900 572L900 601L878.5 601C857 601 814 601 771.2 601C728.3 601 685.7 601 642.8 601C600 601 557 601 514.2 601C471.3 601 428.7 601 385.8 601C343 601 300 601 257.2 601C214.3 601 171.7 601 128.8 601C86 601 43 601 21.5 601L0 601Z" fill="#3ab7bf"></path></svg>