<svg xmlns="http://www.w3.org/2000/svg" width="900" height="600">
  <path fill="#121063" d="M0 0h900v600H0z"/>
  <path fill="#7973d2" d="m302 0-.8 9.2c-.9 9.1-2.5 27.5-12.2 45.6-9.7 18.2-27.3 36.2-9.3 54.4 18 18.1 71.6 36.5 87 54.6C382 182 359 200 331.2 218.2c-27.9 18.1-60.5 36.5-69.4 54.6-8.8 18.2 6.2 36.2 12 54.4 5.9 18.1 2.5 36.5 24 54.6 21.5 18.2 67.9 36.2 79.4 54.4 11.5 18.1-11.9 36.5-32 54.6C325 509 308 527 295.7 545.2c-12.4 18.1-20 36.5-23.9 45.6L268 600H0V0Z"/>
  <path fill="#3f3cbb" d="m306 0-6.7 9.2c-6.6 9.1-20 27.5-42 45.6-22 18.2-52.6 36.2-71 54.4-18.3 18.1-24.3 36.5-2.3 54.6 22 18.2 72 36.2 95.2 54.4 23.1 18.1 19.5 36.5 5.8 54.6-13.7 18.2-37.3 36.2-58.3 54.4-21 18.1-39.4 36.5-32.4 54.6 7 18.2 39.4 36.2 63.5 54.4 24.2 18.1 40.2 36.5 26.2 54.6-14 18.2-58 36.2-60.5 54.4-2.5 18.1 36.5 36.5 56 45.6L299 600H0V0Z"/>
  <path fill="#2c2d8a" d="m93 0 2.8 9.2c2.9 9.1 8.5 27.5 12.2 45.6 3.7 18.2 5.3 36.2 17.5 54.4 12.2 18.1 34.8 36.5 30.3 54.6-4.5 18.2-36.1 36.2-41.3 54.4-5.2 18.1 16.2 36.5 29.3 54.6 13.2 18.2 18.2 36.2 12 54.4-6.1 18.1-23.5 36.5-22.3 54.6 1.2 18.2 20.8 36.2 17.3 54.4-3.5 18.1-30.1 36.5-41.3 54.6-11.2 18.2-6.8 36.2 9.7 54.4 16.5 18.1 45.1 36.5 59.5 45.6L193 600H0V0Z"/>
</svg>
