<svg xmlns="http://www.w3.org/2000/svg" version="1.0" viewBox="0 0 512 512" enable-background="new 0 0 500 500">
  <path fill="#fff" d="M216 8.7C170.2 13 132.9 24.8 96.7 46.2c-7.1 4.3-8.7 6.1-8.7 10 0 4.7 2.5 6.5 15.7 10.9 10.9 3.6 13.4 4.8 16.9 8.3 4 3.9 6.4 9.3 6.4 14.2 0 1.2-1 5.3-2.1 9-1.7 5.4-2 8.6-1.7 14.7.5 7.7.8 8.5 12.1 31.2l11.6 23.4-5.3 1.5c-20.2 5.9-28.3 30.9-14.9 46.5 1.8 2.2 10.4 9.6 19.1 16.5l15.7 12.6 3.4 10c1.9 5.5 5.8 15 8.7 21.1 3 6.1 5.4 11.3 5.4 11.5 0 .1-17.2.4-38.2.6l-38.3.3-6.7 3.2c-9.3 4.4-15.1 10-19.6 19.1l-3.7 7.6-.3 20.8-.4 20.9-5.9 3c-14.2 7.1-27.4 18.1-37 30.7-9.7 12.9-17.4 31.2-19.8 47.9C8.5 445.6 8 460.2 8 474v25.1l2.5 2.4 2.4 2.5h486.2l2.5-2.5 2.6-2.6-.4-29.2c-.4-27.7-.6-29.7-3.1-39.2-7.7-29.2-27.6-53.9-54.4-67.3l-6.1-3.1-.4-20.9-.3-20.8-3.7-7.6c-4.5-9.1-10.3-14.7-19.6-19.1l-6.7-3.2-38.2-.3c-21.1-.2-38.3-.6-38.3-1s.7-1.8 1.5-3c2.3-3.1 10.8-23.4 13.6-31.9l2.3-7.2 15.8-12.6c18.3-14.7 21.9-18.5 24.3-26.1 5.2-16.5-4.5-33.1-21.8-37.5-2.6-.6-4.7-1.4-4.7-1.7 0-.4 4.3-12.6 9.6-27.1 5.3-14.6 10.2-29.8 11-33.9C393.3 60.6 362.1 16.3 316 9c-5.9-.9-90.9-1.2-100-.3zm101.3 16.9c8.9 2 21.7 8 27.9 13.2 22.6 18.9 30.3 47.5 20.5 75.7-5.2 14.8-6.6 18.2-6.6 16.4-.2-3.8-5.4-19.7-8.6-26-4.5-9.1-24.9-39.5-27-40.3-4.1-1.5-6.7-.2-19.1 9.7-7.1 5.6-15 11.4-17.5 12.9-8.5 5-18.9 7.8-32.7 8.8-13.9 1-18.5 1.8-27.6 5-8.4 2.9-13.4 5.8-43.5 25.9-14.6 9.8-27.2 18.1-27.8 18.5-.9.5-3.6-3.9-8.9-14.6-7.1-14.4-7.5-15.6-7.1-20.8.2-3 1.2-8.6 2.2-12.4 1.6-5.8 1.7-7.9.8-13.2-.6-3.5-2.2-8.5-3.4-11.1-3.1-6.5-10.8-13.9-17.5-17-6.5-3-7.2-2.2 8.5-9.3 22.9-10.3 51.4-18.4 74.1-20.9 5.2-.6 10.9-1.3 12.5-1.5 1.7-.1 23.4-.4 48.3-.5 38.1-.1 46.4.2 52.5 1.5zm10 71.9c14 21.4 16.7 30.3 16.7 55.5v15h-75.1l-2.4 2.5c-2.1 2-2.5 3.4-2.5 8v5.5h-16v-5.5c0-4.6-.4-6-2.5-8l-2.4-2.5H168v-11.7l27.3-18.1c14.9-10 29.7-19.3 32.9-20.7 7.3-3.3 17.5-5.5 26.3-5.5 18.3-.1 37.2-7.3 53.6-20.4 5.2-4.1 9.6-7.5 9.9-7.5.3-.1 4.5 6 9.3 13.4zm-174.9 95.2c.4 4.9 1.1 12.5 1.7 17.1.6 4.6.9 8.5.7 8.7-.8.9-15.4-11.7-17.1-14.7-4.6-8.3 1.9-19.5 11.4-19.7 2.6-.1 2.6 0 3.3 8.6zm31.6 4.9c0 17 .9 20.4 7.5 26.9 6.3 6.4 10 7.5 24.7 7.5 14.6 0 19.2-1.5 25.1-8 4.9-5.5 6.7-10.3 6.7-18.4V200h16v5.6c0 8.7 1.8 13.3 7.5 18.9 6.3 6.4 10 7.5 24.7 7.5 14.6 0 19.2-1.5 25.1-8 5.7-6.4 6.7-10.1 6.7-26.4V184h16.2l-.7 9.2c-1.4 20.3-5.7 40.6-12.7 59.8-3.1 8.6-11.1 25.8-14.8 31.7l-2 3.3H198l-2.1-3.3c-3.4-5.4-11.4-22.7-14.7-31.7-6.8-18.5-11.3-39.4-12.7-59.8l-.7-9.2H184v13.6zm48-.1c0 13.1-.1 13.7-2.5 16-2.3 2.4-3.1 2.5-13.5 2.5s-11.2-.1-13.5-2.5c-2.4-2.3-2.5-2.9-2.5-16V184h32v13.5zm80 0c0 13.1-.1 13.7-2.5 16-2.3 2.4-3.1 2.5-13.5 2.5s-11.2-.1-13.5-2.5c-2.4-2.3-2.5-2.9-2.5-16V184h32v13.5zm56.8-11.5c6.6 4 8.9 11.4 5.5 17.8-1.7 3-16.2 15.6-17.1 14.7-.2-.2.1-4.1.6-8.7.6-4.6 1.4-12.2 1.8-17.1.6-8.6.7-8.7 3.3-8.7 1.4 0 4.1.9 5.9 2zm38.6 119.2c5.5 1.6 13.8 9.9 15.4 15.4.9 3.1 1.2 24.6 1.2 85.8V488H88v-81.6c0-61.2.3-82.7 1.2-85.8 1.5-5.1 9.9-13.7 14.8-15.3 5.3-1.7 297.8-1.7 303.4-.1zM72 433v55H23.8l.5-23.2c.4-20.1.7-24.4 2.6-31.3 4.7-16.9 14.9-33.1 27.7-43.9C60 385 70.3 378.1 71.8 378c.1 0 .2 24.7.2 55zm376.1-50.5c13.6 8.8 26.7 24.4 32.6 38.8 5.7 13.9 6.5 18.6 7 43.4l.5 23.3H440v-55c0-30.3.3-55 .6-55s3.7 2 7.5 4.5z"/>
  <path fill="#fff" d="M184.7 331.8C169.7 346.9 168 349 168 352s1.7 5.1 17 20.4l17 17.1 5.7-5.7 5.8-5.8-13-13-13-13 12.8-12.8c7-7 12.7-13.2 12.7-13.8 0-1.3-9.2-10.4-10.6-10.4-.5 0-8.5 7.6-17.7 16.8zm119-12c-2.6 2.6-4.7 5.2-4.7 5.7s5.7 6.7 12.7 13.7l12.8 12.8-13 13-13 13 5.8 5.8 5.7 5.7 17-17.1c15.3-15.3 17-17.4 17-20.4s-1.7-5.1-16.7-20.2c-9.2-9.2-17.2-16.8-17.8-16.8-.6 0-3.2 2.2-5.8 4.8zm-54.3 27.7c-13 17.4-23.5 31.8-23.2 32.1 1.7 1.6 11.3 8.4 12 8.4 1.1 0 48.2-62.9 47.6-63.6-1.7-1.6-11.3-8.4-12-8.4-.4 0-11.4 14.2-24.4 31.5zm-3.4 54.1c-14.3 5.2-23 18.4-21.7 32.9 1.1 11.6 6.7 20.1 16.9 25.6 5.7 3.1 7 3.4 14.8 3.4 7.9 0 9-.3 15-3.6 23.1-12.7 22.2-45.6-1.5-56.8-6.5-3.1-17.2-3.8-23.5-1.5zm16.3 15.8c10.4 4.3 12.8 17.5 4.7 25.6-6.6 6.6-15.6 6.7-22.1.1-12.4-12.3 1.3-32.5 17.4-25.7z"/>
</svg>
