<svg xmlns="http://www.w3.org/2000/svg" viewBox="0 0 720 504">
  <rect width="720" height="504" fill="#fff"/>
  <g fill="#bf0a30">
    <rect width="720" height="36" y="0"/>
    <rect width="720" height="36" y="72"/>
    <rect width="720" height="36" y="144"/>
    <rect width="720" height="36" y="216"/>
    <rect width="720" height="36" y="288"/>
    <rect width="720" height="36" y="360"/>
    <rect width="720" height="36" y="432"/>
  </g>
  <rect width="288" height="252" fill="#002868"/>
  <g fill="#fff">
    <g id="s3">
      <g id="s4">
        <g id="s5">
          <g id="s6">
            <path id="s" d="M24,24 L28,36 L16,30 L32,30 L20,36 z"/>
            <use href="#s" x="24"/>
            <use href="#s" x="48"/>
            <use href="#s" x="72"/>
            <use href="#s" x="96"/>
          </g>
          <use href="#s6" y="24"/>
        </g>
        <use href="#s5" y="48"/>
      </g>
      <use href="#s4" y="96"/>
    </g>
    <use href="#s3" y="144"/>
    <use href="#s6" x="120"/>
    <use href="#s6" x="120" y="24"/>
    <use href="#s6" x="120" y="48"/>
    <use href="#s6" x="120" y="72"/>
    <use href="#s6" x="120" y="96"/>
    <use href="#s6" x="120" y="120"/>
    <use href="#s6" x="120" y="144"/>
    <use href="#s6" x="120" y="168"/>
    <use href="#s6" x="120" y="192"/>
    <use href="#s6" x="120" y="216"/>
  </g>
</svg> 